<?xml version="1.0" encoding="UTF-8"?>
<!DOCTYPE svg PUBLIC "-//W3C//DTD SVG 1.0//EN" "http://www.w3.org/TR/2001/REC-SVG-20010904/DTD/svg10.dtd">
<!-- Creator: CorelDRAW 2019 -->
<svg xmlns="http://www.w3.org/2000/svg" xml:space="preserve" width="1811px" height="573px" version="1.0" style="shape-rendering:geometricPrecision; text-rendering:geometricPrecision; image-rendering:optimizeQuality; fill-rule:evenodd; clip-rule:evenodd"
viewBox="0 0 1637.17 517.76"
 xmlns:xlink="http://www.w3.org/1999/xlink"
 xmlns:xodm="http://www.corel.com/coreldraw/odm/2003">
 <defs>
  <style type="text/css">
   <![CDATA[
    .fil0 {fill:#07090A}
    .fil1 {fill:#1BBEB5}
    .fil2 {fill:#2B2A29;fill-rule:nonzero}
    .fil3 {fill:#1BBEB5;fill-rule:nonzero}
   ]]>
  </style>
 </defs>
 <g id="Layer_x0020_1">
  <metadata id="CorelCorpID_0Corel-Layer"/>
  <g id="_-1697577880">
   <path class="fil0" d="M33.43 136.73l276.15 0c66.52,0 70.53,90.67 8.01,99.99 -48.46,7.23 -93.2,4.18 -126.42,52.3 -52.96,76.69 -10.03,183.33 72.95,224.4 14.5,7.17 29.48,3.29 50.5,3.3 24.2,0 108.25,-1.96 148.3,-0.34 24.47,0.98 34.27,1.25 13.93,-17.93 -13.78,-12.98 -30.92,-28.32 -35.67,-32.63l-84.25 -77.16c-11.64,-10.35 -11.59,-8.58 3.59,-10.95 7.96,-1.24 16.36,-3.29 21.98,-4.97 32.75,-9.79 63.03,-30.97 83.22,-58.01 56.78,-76.03 47.37,-199.47 -13.64,-259.98 -8.59,-8.51 -14.48,-13.68 -24.31,-21.09l-28.56 -16.83c-20.7,-8.62 -46.01,-16.71 -74.5,-16.71l-292.95 0c-10.61,-1.23 -13.27,7.65 -13.06,12.29l0 113.42c-0.61,8.02 5.16,11.51 14.73,10.9z"/>
   <path class="fil1" d="M82.59 388.53l0 4.46c0.03,4.19 -1.32,5.92 -3.6,6.03l-15.9 0c-4.33,-0.2 -6.17,0.26 -5.23,-7.86 1.43,-12.26 4.64,-27.92 7.28,-36.49 5.82,-18.69 8.49,-23.92 24.09,-24.52 5.23,-0.21 3.09,1.62 1.7,7.04 -4.13,16.1 -8.34,29.04 -8.34,51.34zm6.1 -82.33c6.54,-13.27 9.99,-22.11 26.07,-23.1 4.2,-0.26 3.15,-0.17 1.02,3.12 -14.71,22.76 -5.71,18.83 -25.59,24.2 -5.83,1.58 -4.16,1.19 -1.5,-4.22zm36.37 -44.88c6.39,-8.11 20.62,-17.24 31.76,-20.68 4.75,-1.47 8.88,-2.85 2.74,1.64 -23.56,17.22 -14.76,22.14 -32.27,22.28 -4.4,0.03 -5.33,0.7 -2.23,-3.24zm-125.06 177.85l1.48 67.95c-0.58,4.78 2.03,8.08 8.52,9.6l53.81 0c8.36,0 6.6,-4.18 5.72,-8.02 -2.27,-9.94 -6.93,-24.1 -8.4,-31.05 -2.3,-10.85 -4.61,-23.97 -5.26,-36.56 -0.37,-7.13 0.03,-6.76 4.88,-6.76 48.76,-0.1 11.05,-0.25 45.94,71.74 2.39,5.68 5.74,10.78 11.74,10.55 17.57,-0.67 51,-1.69 70.73,-0.49 7.94,0.48 14.91,-0.92 2.86,-14.29 -19.9,-22.08 -52.26,-67.82 -52.26,-139.81 0,-50.56 26.5,-92.01 54.29,-115.53 34.56,-29.25 66.31,-34.79 107.13,-40.98 10.64,-1.61 29.61,-3.95 3.54,-5.98 -51.17,-3.99 -83.92,-4.08 -142.04,13.91 -97.22,30.09 -162.68,118.34 -162.68,225.72z"/>
   <path class="fil2" d="M702.35 256.84c-1.84,-11.39 -5.65,-19.3 -11.43,-23.74 -5.78,-4.44 -12.94,-7.08 -21.48,-7.92 -1.18,-0.17 -2.6,-0.25 -4.28,-0.25 -1.67,0 -3.1,0.17 -4.27,0.5l-0.25 0.25 0 32.16c0,3.19 -0.29,5.74 -0.88,7.67 -0.58,1.92 -2.18,3.52 -4.77,4.77 -2.6,1.26 -6.66,1.88 -12.19,1.88l-23.36 0c-5.2,0.17 -9.3,-0.79 -12.31,-2.88 -3.02,-2.1 -4.53,-4.99 -4.53,-8.67l0.25 -67.84 0 -87.43c0,-2.52 1.26,-4.74 3.77,-6.66 2.52,-1.93 5.53,-2.89 9.05,-2.89l57.03 0c25.13,-0.17 43.72,4.06 55.78,12.69 12.06,8.62 18.59,22.15 19.6,40.57 0.16,1.68 0.21,2.98 0.12,3.9 -0.08,0.92 -0.12,1.71 -0.12,2.38l0 5.28c-0.84,9.72 -3.4,17.42 -7.67,23.12 -4.27,5.69 -9.92,10.97 -16.96,15.82l0.26 0.25c8.2,4.03 14.73,9.8 19.59,17.34 4.86,7.54 8.17,15.41 9.93,23.62 1.76,8.21 2.47,15.58 2.13,22.11 0,2.85 -1,5.11 -3.01,6.78 -2.01,1.68 -4.86,2.51 -8.55,2.51l-30.65 0c-4.35,0 -7.16,-1.08 -8.41,-3.26 -1.26,-2.18 -1.93,-4.48 -2.01,-6.91 -0.09,-2.43 -0.21,-4.15 -0.38,-5.15zm-37.44 -78.64c7.71,0 14.79,-1.38 21.23,-4.15 6.45,-2.76 9.68,-9.17 9.68,-19.22 0,-7.03 -2.14,-12.39 -6.41,-16.08 -4.27,-3.68 -10.43,-5.53 -18.47,-5.53l-20.6 0 0 2.52 0 42.46 1.76 0 0.75 0 12.06 0z"/>
   <path class="fil2" d="M891.61 182.72c0,-7.2 -1.84,-13.82 -5.53,-19.85 -3.68,-6.03 -8.58,-10.84 -14.7,-14.45 -6.11,-3.6 -12.69,-5.4 -19.72,-5.4 -7.37,0 -14.11,1.8 -20.23,5.4 -6.11,3.61 -10.92,8.42 -14.44,14.45 -3.52,6.03 -5.28,12.65 -5.28,19.85 0,7.2 1.76,13.86 5.28,19.97 3.52,6.12 8.33,10.98 14.44,14.58 6.12,3.6 12.86,5.4 20.23,5.4 7.03,0 13.61,-1.8 19.72,-5.4 6.12,-3.6 11.02,-8.46 14.7,-14.58 3.69,-6.11 5.53,-12.77 5.53,-19.97zm-131.15 2.26c0,-16.58 4.14,-31.91 12.43,-45.98 8.29,-14.07 19.47,-25.25 33.54,-33.54 14.08,-8.29 29.4,-12.44 45.98,-12.44 16.58,0 31.95,4.15 46.11,12.44 14.15,8.29 25.37,19.47 33.67,33.54 8.29,14.07 12.43,29.4 12.43,45.98 0,16.58 -4.14,31.91 -12.43,45.98 -8.3,14.07 -19.52,25.25 -33.67,33.54 -14.16,8.29 -29.53,12.44 -46.11,12.44 -16.58,0 -31.9,-4.15 -45.98,-12.44 -14.07,-8.29 -25.25,-19.47 -33.54,-33.54 -8.29,-14.07 -12.43,-29.4 -12.43,-45.98z"/>
   <path class="fil2" d="M1088.99 96.79c2.85,0 5.36,1.05 7.54,3.14 2.17,2.1 3.26,4.48 3.26,7.16l0 29.15c0,2.85 -1.09,5.36 -3.26,7.54 -2.18,2.17 -4.69,3.26 -7.54,3.26l-39.7 0 0 113.57c0,3.18 -0.96,5.86 -2.89,8.04 -1.93,2.18 -4.31,3.26 -7.16,3.26l-33.41 0c-2.85,0 -5.24,-1.04 -7.17,-3.14 -1.92,-2.09 -2.89,-4.73 -2.89,-7.91l1.76 -113.82 -40.2 0c-3.18,0 -5.82,-1.09 -7.91,-3.26 -2.1,-2.18 -3.14,-4.69 -3.14,-7.54l0 -29.15c0,-2.84 1.04,-5.27 3.14,-7.28 2.09,-2.01 4.73,-3.02 7.91,-3.02l131.66 0z"/>
   <path class="fil2" d="M1074.22 261.86c0,-2.84 0.46,-5.65 1.38,-8.41 0.93,-2.77 1.47,-4.32 1.64,-4.65l55.78 -141.45c1.5,-3.52 3.72,-6.24 6.65,-8.17 2.94,-1.93 6.41,-2.97 10.43,-3.14l20.6 0 15.58 0c4.36,0.17 7.96,1.34 10.8,3.52 2.85,2.17 4.78,4.77 5.78,7.79l56.28 141.45c0.17,0.84 0.67,2.55 1.51,5.15 0.84,2.6 1.26,5.07 1.26,7.41 0,6.03 -3.35,9.55 -10.05,10.55l-34.42 0c-3.52,0 -6.5,-0.63 -8.93,-1.88 -2.42,-1.26 -3.97,-3.06 -4.64,-5.4l-7.79 -25.13 -56.03 0 -7.79 25.13c-0.67,2.34 -2.18,4.14 -4.52,5.4 -2.35,1.25 -5.28,1.88 -8.8,1.88l-34.92 0c-6.53,-1 -9.8,-4.35 -9.8,-10.05zm96.48 -64.82l16.33 0 -19.85 -59.04 -19.59 59.04 23.11 0z"/>
   <path class="fil3" d="M602.6 360.08l41.94 0c14.14,0 25.3,4.11 33.48,12.28 8.2,8.2 12.28,18.07 12.28,29.68 0,11.58 -4.08,21.48 -12.28,29.65 -8.18,8.2 -19.34,12.29 -33.48,12.29l-15.25 0 0 22.88 -26.69 0 0 -106.78zm26.69 22.88l0 38.13 15.25 0c5.28,0 9.79,-1.84 13.51,-5.57 3.7,-3.69 5.57,-8.2 5.57,-13.48 0,-5.29 -1.87,-9.79 -5.57,-13.51 -3.72,-3.7 -8.23,-5.57 -13.51,-5.57l-15.25 0zm121.92 12.13l-14.71 37.46 29.44 0 -14.73 -37.46zm-23.72 60.32l-4.5 11.45 -28.98 0 41.94 -106.78 30.51 0 41.96 106.78 -29 0 -4.5 -11.45 -47.43 0zm98.57 -95.33l41.94 0c14.13,0 25.3,4.11 33.47,12.28 8.2,8.2 12.29,18.07 12.29,29.68 0,11.58 -4.09,21.48 -12.29,29.65 -3.25,3.25 -6.97,5.88 -11.19,7.86l24.55 27.31 -35.85 0 -20.51 -22.88 -5.73 0 0 22.88 -26.68 0 0 -106.78zm26.68 22.88l0 38.13 15.26 0c5.28,0 9.78,-1.84 13.51,-5.57 3.69,-3.69 5.57,-8.2 5.57,-13.48 0,-5.29 -1.88,-9.79 -5.57,-13.51 -3.73,-3.7 -8.23,-5.57 -13.51,-5.57l-15.26 0zm130.17 0l0 83.9 -26.68 0 0 -83.9 -28.61 0 0 -22.88 83.9 0 0 22.88 -28.61 0zm80.58 83.9l-26.68 0 0 -106.78 26.68 0 0 106.78zm100.87 -32.41l19.36 18.3c-0.34,0.42 -0.7,0.78 -1.06,1.15 -11.17,11.19 -24.68,16.76 -40.48,16.76 -15.83,0 -29.32,-5.57 -40.46,-16.74 -11.17,-11.14 -16.74,-24.63 -16.74,-40.45 0,-15.8 5.57,-29.29 16.74,-40.46 11.14,-11.16 24.63,-16.74 40.46,-16.74 15.8,0 29.31,5.58 40.48,16.72 0.31,0.34 0.62,0.67 0.93,0.99l-19.76 17.99 -0.07 -0.08c-5.96,-5.94 -13.15,-8.93 -21.58,-8.93 -8.44,0 -15.65,2.99 -21.58,8.93 -5.97,5.96 -8.93,13.14 -8.93,21.58 0,8.43 2.96,15.64 8.93,21.58 5.93,5.96 13.14,8.93 21.58,8.93 8.43,0 15.62,-2.97 21.58,-8.93l0.6 -0.6zm41.24 -9.53l0 -64.84 26.68 0 0 64.84c0,5.29 1.88,9.79 5.58,13.49 3.72,3.72 8.22,5.57 13.51,5.57 5.28,0 9.78,-1.85 13.48,-5.57 3.72,-3.7 5.57,-8.2 5.57,-13.49l0 -64.84 26.71 0 0 64.84c0,12.65 -4.48,23.46 -13.41,32.36 -8.9,8.93 -19.7,13.38 -32.35,13.38 -12.68,0 -23.46,-4.45 -32.39,-13.38 -8.93,-8.9 -13.38,-19.71 -13.38,-32.36zm116.82 -64.84l26.68 0 0 83.9 49.59 0 0 22.88 -76.27 0 0 -106.78zm151.13 35.01l-14.71 37.46 29.44 0 -14.73 -37.46zm-23.72 60.32l-4.5 11.45 -28.97 0 41.93 -106.78 30.51 0 41.97 106.78 -29 0 -4.51 -11.45 -47.43 0zm98.57 -95.33l41.94 0c14.14,0 25.3,4.11 33.48,12.28 8.2,8.2 12.28,18.07 12.28,29.68 0,11.58 -4.08,21.48 -12.28,29.65 -3.26,3.25 -6.98,5.88 -11.2,7.86l24.55 27.31 -35.84 0 -20.52 -22.88 -5.73 0 0 22.88 -26.68 0 0 -106.78zm26.68 22.88l0 38.13 15.26 0c5.28,0 9.79,-1.84 13.51,-5.57 3.7,-3.69 5.57,-8.2 5.57,-13.48 0,-5.29 -1.87,-9.79 -5.57,-13.51 -3.72,-3.7 -8.23,-5.57 -13.51,-5.57l-15.26 0z"/>
  </g>
 </g>
</svg>
